<?xml version="1.0" encoding="utf-8"?>
<!-- Generator: Adobe Illustrator 22.0.1, SVG Export Plug-In . SVG Version: 6.00 Build 0)  -->
<svg version="1.1" id="Capa_1" xmlns="http://www.w3.org/2000/svg" xmlns:xlink="http://www.w3.org/1999/xlink" x="0px" y="0px"
	 viewBox="154.5 153.3 601 549.4" style="enable-background:new 154.5 153.3 601 549.4;" xml:space="preserve">
<style type="text/css">
	.st0{fill:#E2A66F;}
</style>
<g>
	<path class="st0" d="M227.4,344.3l151.9-51.8l46.4,25.9l-14.5,12.1c-3.8,3.2-4.3,8.9-1.2,12.7c1.8,2.1,4.3,3.2,6.9,3.2
		c2,0,4.1-0.7,5.8-2.1l48-40c3.8-3.2,4.3-8.9,1.2-12.7c-3.2-3.8-8.9-4.3-12.7-1.2l-18.7,15.6l-38.2-21.4l91.5-31.2
		c15.4-5.3,32.6-2.8,45.9,6.6l133.5,94c1.7,1.2,3.8,1.8,5.8,1.8c2.6,0,5.1-1,7-2.9c3.4-3.4,4-8.8,1.2-12.8l-80.3-117.9
		c-16.8-24.7-41.7-43.2-70.2-52.1c-28.5-8.9-59.5-8-87.4,2.7l-73.3,28c-5.2,2-7.7,7.8-5.8,12.9s7.8,7.7,12.9,5.8l73.3-28
		c49.2-18.8,104.2-1.5,133.9,42l49.3,72.4l-88.5-62.3c-18.5-13.1-42.4-16.5-63.9-9.2l-108.5,37l-211.4-118
		c-4.3-2.4-9.8-0.9-12.2,3.5c-2.4,4.3-0.9,9.8,3.5,12.2l122.2,68.2l-76.1,29.1c-21.9,8.4-33,32.3-25.2,54.4
		C186.3,340.6,207.8,351,227.4,344.3z M198.3,314.4c-4.2-11.8,1.8-24.6,13.5-29.1l91.6-35c0,0,0.1,0,0.1-0.1l52.3,29.2l-134.8,46
		C211.7,328.6,201.5,323.6,198.3,314.4z"/>
	<path class="st0" d="M342.2,234.7c2.6,0,5.2-1.1,7.1-2.9c1.9-1.9,2.9-4.4,2.9-7.1c0-2.6-1.1-5.2-2.9-7.1c-1.9-1.9-4.4-2.9-7.1-2.9
		c-2.6,0-5.2,1.1-7.1,2.9c-1.9,1.9-2.9,4.4-2.9,7.1c0,2.6,1.1,5.2,2.9,7.1C337,233.6,339.6,234.7,342.2,234.7z"/>
	<path class="st0" d="M608.4,436.1L608,436c-12-3.7-22.4-11.2-29.7-21.3c7.5-6,14.7-12.5,21.6-19.4c3.9-3.9,3.9-10.2,0-14.1
		c-3.9-3.9-10.2-3.9-14.1,0c-39.2,39.2-89.3,63.6-143.5,70.4c-0.4,0-0.7,0.1-1.1,0.1c-9.9,1.2-19.8,1.8-29.9,1.8c0,0,0,0,0,0
		c0,0,0,0,0,0c-10.1,0-20.1-0.6-29.9-1.8c-0.4-0.1-0.7-0.1-1.1-0.1c-54.2-6.7-104.3-31.1-143.5-70.4c-3.9-3.9-10.2-3.9-14.1,0
		c-3.9,3.9-3.9,10.2,0,14.1c6.9,6.9,14.1,13.4,21.6,19.4c-7.3,10.1-17.7,17.6-29.7,21.3l-0.4,0.1c-5.3,1.6-8.2,7.2-6.6,12.5
		c1.3,4.3,5.3,7.1,9.6,7.1c1,0,2-0.1,3-0.4l0.4-0.1c16.1-5,30-15,39.8-28.5c3.4,2.4,6.9,4.6,10.4,6.8c-4.9,15.3-16.3,27.7-31.5,33.7
		l-3.1,1.2c-5.1,2-7.6,7.8-5.6,13c1.6,3.9,5.3,6.3,9.3,6.3c1.2,0,2.5-0.2,3.7-0.7l3.1-1.2c19.5-7.7,34.4-23.1,41.8-42.2
		c3.8,2,7.7,3.9,11.7,5.7c-1.1,17.1-11.1,32.5-26.5,40.5L273,490c-4.9,2.6-6.8,8.6-4.2,13.5c1.8,3.4,5.3,5.4,8.9,5.4
		c1.6,0,3.1-0.4,4.6-1.1l0.6-0.3c19.6-10.2,32.9-28.9,36.4-50.3c4.2,1.6,8.5,3,12.8,4.3c-0.6,15.9-6.7,30.9-17.5,42.7
		c-3.7,4.1-3.5,10.4,0.6,14.1c1.9,1.8,4.3,2.6,6.8,2.6c2.7,0,5.4-1.1,7.4-3.2c13-14.1,20.8-32,22.5-50.9c5.7,1.3,11.6,2.4,17.4,3.3
		c-1.3,15.4-6,30.3-13.9,43.6L354,516c-2.8,4.8-1.2,10.9,3.6,13.7c1.6,0.9,3.3,1.4,5.1,1.4c3.4,0,6.8-1.8,8.6-4.9l1.3-2.3
		c9.2-15.7,14.8-33.3,16.5-51.4c4.1,0.3,8.1,0.6,12.2,0.7v59.4c0,5.5,4.5,10,10,10s10-4.5,10-10v-59.4c4.1-0.1,8.2-0.4,12.2-0.7
		c1.6,18.1,7.2,35.7,16.5,51.4l1.3,2.3c1.9,3.2,5.2,4.9,8.6,4.9c1.7,0,3.5-0.4,5.1-1.4c4.8-2.8,6.4-8.9,3.6-13.7l-1.3-2.3
		c-7.8-13.3-12.6-28.3-13.9-43.6c5.9-0.9,11.7-2,17.4-3.3c1.7,18.9,9.5,36.8,22.5,50.9c2,2.2,4.7,3.2,7.4,3.2c2.4,0,4.8-0.9,6.8-2.6
		c4.1-3.7,4.3-10.1,0.6-14.1c-10.8-11.7-16.9-26.8-17.5-42.7c4.3-1.3,8.6-2.8,12.8-4.3c3.5,21.4,16.8,40.1,36.4,50.3l0.6,0.3
		c1.5,0.8,3.1,1.1,4.6,1.1c3.6,0,7.1-2,8.9-5.4c2.6-4.9,0.7-10.9-4.2-13.5l-0.6-0.3c-15.4-8-25.3-23.3-26.5-40.5
		c3.9-1.8,7.8-3.7,11.7-5.7c7.3,19.2,22.3,34.5,41.8,42.2l3.1,1.2c1.2,0.5,2.5,0.7,3.7,0.7c4,0,7.7-2.4,9.3-6.3
		c2-5.1-0.5-10.9-5.6-13l-3.1-1.2c-15.2-6-26.6-18.4-31.5-33.7c3.5-2.2,7-4.5,10.4-6.8c9.8,13.5,23.7,23.5,39.8,28.5l0.4,0.1
		c1,0.3,2,0.4,3,0.4c4.3,0,8.2-2.8,9.6-7.1C616.6,443.4,613.6,437.8,608.4,436.1z"/>
	<path class="st0" d="M501.2,293.5l-48,40c-3.8,3.2-4.3,8.9-1.2,12.7c1.8,2.1,4.3,3.2,6.9,3.2c2,0,4.1-0.7,5.8-2.1l48-40
		c3.8-3.2,4.3-8.9,1.2-12.7C510.6,290.8,505,290.3,501.2,293.5z"/>
	<path class="st0" d="M749.6,417.2l-212.1-94.6l17.2-14.3c3.8-3.2,4.3-8.9,1.2-12.7c-3.2-3.8-8.9-4.3-12.7-1.2l-48,40
		c-3.8,3.2-4.3,8.9-1.2,12.7c1.8,2.1,4.3,3.2,6.9,3.2c2,0,4.1-0.7,5.8-2.1l15.4-12.9l220.1,98.2c1.2,0.5,2.4,0.8,3.7,0.8
		c3.4,0,6.7-2,8.2-5.3C756.2,424.6,754.1,419.2,749.6,417.2z"/>
</g>
</svg>
