<?xml version="1.0" encoding="utf-8"?>
<!-- Generator: Adobe Illustrator 22.0.1, SVG Export Plug-In . SVG Version: 6.00 Build 0)  -->
<svg version="1.1" id="Capa_1" xmlns="http://www.w3.org/2000/svg" xmlns:xlink="http://www.w3.org/1999/xlink" x="0px" y="0px"
	 viewBox="2042.8 142.1 512 562.2" style="enable-background:new 2042.8 142.1 512 562.2;" xml:space="preserve">
<style type="text/css">
	.st0{fill:#E2A66F;}
</style>
<g>
	<path class="st0" d="M2363.5,228.9c1.9-1.9,2.9-4.4,2.9-7.1s-1.1-5.2-2.9-7.1c-1.9-1.9-4.4-2.9-7.1-2.9c-2.6,0-5.2,1.1-7.1,2.9
		c-1.9,1.9-2.9,4.4-2.9,7.1c0,2.6,1.1,5.2,2.9,7.1c1.9,1.9,4.4,2.9,7.1,2.9C2359,231.9,2361.6,230.8,2363.5,228.9z"/>
	<path class="st0" d="M2553.1,318.1l-80.3-117.9c-16.8-24.7-41.7-43.2-70.2-52.1c-28.5-8.9-59.5-8-87.4,2.7l-244.8,93.6
		c-21.9,8.4-33,32.3-25.2,54.4c6.9,19.5,28.4,30,48,23.3l227-77.4c5.2-1.8,8-7.5,6.2-12.7c-1.8-5.2-7.5-8-12.7-6.2l-227,77.4
		c-9.3,3.2-19.5-1.8-22.7-11c-4.2-11.8,1.8-24.6,13.5-29.1l244.8-93.6c17.3-6.6,35.3-8.8,52.7-6.9c-4.7,1.6-7.4,6.6-6,11.5
		c1.4,5,6.6,8,11.6,6.5l1.5,5.4l-4.5,1.3c-5,1.4-8,6.6-6.5,11.6c1.4,5,6.6,8,11.6,6.5l4.5-1.3l1.5,5.4l-9.1,2.5
		c-5,1.4-8,6.6-6.5,11.6c1.4,5,6.6,8,11.6,6.5l9.1-2.5l1.5,5.4l-13.6,3.8c-5,1.4-8,6.6-6.5,11.6c1.4,5,6.6,8,11.6,6.5l13.6-3.8
		l1.5,5.4l-18.2,5.1c-5,1.4-8,6.6-6.5,11.6c1.4,5,6.6,8,11.6,6.5l18.2-5.1l24,85.9l-31.8,8.9c-5,1.4-8,6.6-6.5,11.6l1.7,6
		c-12.3,2.3-27.7,4.2-46.5,4.9c5-4.1,9.6-8.8,13.6-14.1c13.8-17.9,19.7-40.2,16.8-62.6l4.1,15.4l-5.5-22.4c-0.1,1.1,0,2.1,0.3,3.2
		l0.3,1.2c-1.7-4.1-6-6.7-10.5-6.1c-5.5,0.7-9.3,5.7-8.6,11.2c2.3,17.2-2.3,34.2-12.8,47.9c-10.5,13.7-25.8,22.5-43,24.8
		c-0.6,0.1-1.2,0.2-1.7,0.4c6-4.6,11.5-9.9,16.2-16.1c13.8-18,19.8-40.2,16.8-62.7c-0.7-5.5-5.7-9.3-11.2-8.6
		c-5.5,0.7-9.3,5.7-8.6,11.2c2.3,17.2-2.3,34.2-12.8,47.9c-7.7,10.1-18.1,17.5-29.8,21.6c5.3-5.4,9.9-11.4,13.7-18.2
		c11.1-19.8,13.8-42.7,7.6-64.5c-1.5-5.3-7-8.4-12.3-6.9c-5.3,1.5-8.4,7-6.9,12.3c4.7,16.7,2.6,34.2-5.8,49.3
		c-8.4,14.9-22,25.7-38.4,30.5c-40.1,2.9-77.5,21.1-109.7,53.5c-2.8,2.8-5.4,5.6-7.9,8.4c2.1-4.5,4.4-9.1,7-13.7
		c27-48.4,66.7-72.9,118-72.9c0.2,0,0.3,0,0.5,0c5.5,0,10-4.5,10-10c0-5.5-4.4-10-10-10c-0.2,0-0.3,0-0.5,0
		c-58.3,0-105.1,28.8-135.5,83.2c-22.5,40.2-27.9,80-28.1,81.9c-0.6,4.2,1.7,8.5,5.8,10.4c1.3,0.6,2.8,0.9,4.2,0.9
		c3.8,0,7.4-2.2,9.1-5.8c0.1-0.3,14.3-30.7,42.2-58.7c16.2-16.2,33.4-28.3,51.5-36.2c-9.5,10.9-16.2,24.1-19.5,38.6
		c-5.1,22.9-1,46.5,11.7,66.3c5.7,9,12.8,16.6,21,22.9c-16.2-1.2-33.5-3.7-52-7.9c-5.4-1.2-10.7,2.2-11.9,7.6
		c-1.2,5.4,2.2,10.7,7.6,11.9c27.5,6.1,53.5,9.2,77.9,9.2c47.5,0,88.9-11.6,123.8-34.6c33-21.8,54.9-50.6,69.1-76.4l26.2,93.8
		c5.4,19.2,34.2,18.5,57.3,12.1c23.1-6.5,48.1-20.8,42.7-40l-47-168.2c-1.4-5-6.6-8-11.6-6.5l-31.8,8.9l-24-85.9l18.2-5.1
		c5-1.4,8-6.6,6.5-11.6c-1.4-5-6.6-8-11.6-6.5l-18.2,5.1l-1.5-5.4l13.6-3.8c5-1.4,8-6.6,6.5-11.6c-1.4-5-6.6-8-11.6-6.5l-13.6,3.8
		l-1.5-5.4l9.1-2.5c5-1.4,8-6.6,6.5-11.6c-1.4-5-6.6-8-11.6-6.5l-9.1,2.5l-1.5-5.4l4.5-1.3c5-1.4,8-6.6,6.5-11.6
		c-1.4-5-6.6-8-11.6-6.5l-4.5,1.3l-1.5-5.4c2.9-0.8,5.1-2.9,6.1-5.4c20.2,8.1,38.2,22.2,51.2,41.3l49.3,72.4l-4-2.8
		c-4.5-3.2-10.8-2.1-13.9,2.4c-3.2,4.5-2.1,10.8,2.4,13.9l49,34.5c1.7,1.2,3.8,1.8,5.8,1.8c2.6,0,5.1-1,7-2.9
		C2555.3,327.5,2555.8,322.1,2553.1,318.1z M2318.6,490.7c-3.9,17.7-14.5,32.8-29.8,42.6c-15.3,9.7-33.5,12.9-51.2,9
		c-17.7-3.9-32.8-14.5-42.6-29.8c-9.7-15.3-12.9-33.5-9-51.2c7-31.6,35.2-53.2,66.3-53.2c4.9,0,9.8,0.5,14.7,1.6
		c17.7,3.9,32.8,14.5,42.6,29.8C2319.4,454.8,2322.6,472.9,2318.6,490.7z M2329.5,518.1c3.9-7.2,6.9-14.9,8.7-23.1
		c5.1-22.9,1-46.5-11.7-66.3c-3.8-6-8.3-11.5-13.4-16.3c37.8,1.3,66.5-1.7,86.8-5.6l5.7,20.2
		C2392.7,456.6,2369.6,493.2,2329.5,518.1z M2477.2,367.7l44.5,159.1c-0.1,2.5-9.1,11.1-29.6,16.8s-32.6,3-34,1l-44.5-159.1
		L2477.2,367.7z"/>
	<path class="st0" d="M2261.1,436.3c-21.8-4.9-43.5,9-48.4,30.8c-2.4,10.6-0.4,21.4,5.4,30.6s14.8,15.5,25.4,17.8c3,0.7,5.9,1,8.8,1
		c18.6,0,35.4-12.9,39.6-31.8c2.4-10.6,0.4-21.4-5.4-30.6C2280.7,445,2271.7,438.7,2261.1,436.3z M2272.4,480.4
		c-2.5,11.1-13.5,18.1-24.5,15.6c-5.4-1.2-9.9-4.4-12.9-9c-2.9-4.6-3.9-10.1-2.7-15.5c2.1-9.6,10.6-16.1,20.1-16.1
		c1.5,0,3,0.2,4.5,0.5c5.4,1.2,9.9,4.4,12.9,9C2272.6,469.5,2273.6,475,2272.4,480.4z"/>
</g>
</svg>
