<?xml version="1.0" encoding="utf-8"?>
<!-- Generator: Adobe Illustrator 22.0.1, SVG Export Plug-In . SVG Version: 6.00 Build 0)  -->
<svg version="1.1" id="Capa_1" xmlns="http://www.w3.org/2000/svg" xmlns:xlink="http://www.w3.org/1999/xlink" x="0px" y="0px"
	 viewBox="1376.4 141.1 612.2 565.8" style="enable-background:new 1376.4 141.1 612.2 565.8;" xml:space="preserve">
<style type="text/css">
	.st0{fill:#E2A66F;}
</style>
<g>
	<path class="st0" d="M1594.7,435.4c-21.8-4.9-43.5,9-48.4,30.8c-2.4,10.6-0.4,21.4,5.4,30.6c5.8,9.1,14.8,15.5,25.4,17.8
		c3,0.7,5.9,1,8.8,1c18.6,0,35.4-12.9,39.6-31.8c2.4-10.6,0.4-21.4-5.4-30.6C1614.3,444.1,1605.3,437.8,1594.7,435.4z M1606,479.4
		c-2.5,11.1-13.5,18.1-24.5,15.6c-5.4-1.2-9.9-4.4-12.9-9c-2.9-4.6-3.9-10.1-2.7-15.5c2.1-9.6,10.6-16.1,20.1-16.1
		c1.5,0,3,0.2,4.5,0.5c5.4,1.2,9.9,4.4,12.9,9C1606.2,468.6,1607.2,474.1,1606,479.4z"/>
	<path class="st0" d="M1986.1,466.6c-30.3-30.3-49.7-68.7-56.3-111c-2.1-13.6-8.4-26-18.1-35.8l-44.7-44.7l-60.6-75.8
		c-16.8-24.7-41.7-43.2-70.2-52.1c-28.5-8.9-59.5-8-87.4,2.7l-244.8,93.6c-21.9,8.4-33,32.3-25.2,54.4c6.9,19.5,28.4,30,48,23.3
		l227-77.4c5.2-1.8,8-7.5,6.2-12.7c-1.8-5.2-7.5-8-12.7-6.2l-227,77.4c-9.3,3.2-19.5-1.8-22.7-11c-4.2-11.8,1.8-24.6,13.5-29.1
		l244.8-93.6c40.8-15.6,85.7-6.4,116.7,22.1c-9.8-5.9-20-11.1-30.7-15.6c-3.2-1.3-6.9-0.6-9.3,1.8l-24.1,24.1c-2,2-2.9,4.9-2.3,7.7
		c0.5,2.8,2.4,5.1,5.1,6.2c26.6,11.2,50.5,27.3,71,47.7l93.3,93.3c7.2,7.2,11.8,16.3,13.3,26.3l2.7,17.8c0.3,2.3-0.4,4.6-2,6.2
		s-3.9,2.4-6.2,2l-17.8-2.7c-10-1.5-19.1-6.2-26.3-13.3l-93.3-93.3c-20.4-20.4-36.5-44.3-47.7-71c-1.1-2.6-3.4-4.5-6.2-5.1
		c-2.8-0.5-5.7,0.3-7.7,2.3l-24.1,24.1c-2.5,2.5-3.2,6.1-1.8,9.3c8.6,20.5,19.9,39.5,33.7,56.7c0,0.6,0,1.3,0.1,1.9
		c2.3,17.2-2.3,34.2-12.8,47.9c-10.5,13.7-25.8,22.5-43,24.8c-0.6,0.1-1.2,0.2-1.7,0.4c6-4.6,11.5-9.9,16.2-16.1
		c13.8-18,19.8-40.2,16.8-62.7c-0.7-5.5-5.7-9.3-11.2-8.6c-5.5,0.7-9.3,5.7-8.6,11.2c2.3,17.2-2.3,34.2-12.8,47.9
		c-7.7,10.1-18.1,17.5-29.8,21.6c5.3-5.4,9.9-11.4,13.7-18.2c11.1-19.8,13.8-42.7,7.6-64.5c-1.5-5.3-7-8.4-12.3-6.9
		c-5.3,1.5-8.4,7-6.9,12.3c4.7,16.7,2.6,34.2-5.8,49.3c-8.4,14.9-22,25.7-38.4,30.5c-40.1,2.9-77.5,21.1-109.7,53.5
		c-2.8,2.8-5.4,5.6-7.9,8.4c2.1-4.5,4.4-9.1,7-13.7c27-48.4,66.7-72.9,118-72.9c0.2,0,0.3,0,0.5,0c5.5,0,10-4.5,10-10
		c0-5.5-4.4-10-10-10c-0.2,0-0.3,0-0.5,0c-58.3,0-105.1,28.8-135.5,83.2c-22.5,40.2-27.9,80-28.1,81.9c-0.6,4.2,1.7,8.5,5.8,10.4
		c1.3,0.6,2.8,0.9,4.2,0.9c3.8,0,7.4-2.2,9.1-5.8c0.1-0.3,14.3-30.7,42.2-58.7c16.2-16.2,33.4-28.3,51.5-36.2
		c-9.5,10.9-16.2,24.1-19.5,38.6c-5.1,22.9-1,46.5,11.6,66.3c5.7,9,12.8,16.6,21,22.9c-16.2-1.2-33.5-3.7-52-7.9
		c-5.4-1.2-10.7,2.2-11.9,7.6c-1.2,5.4,2.2,10.7,7.6,11.9c27.5,6.1,53.5,9.2,77.9,9.2c47.5,0,88.9-11.6,123.8-34.6
		c31.4-20.8,83.3-93,102.6-125.3l22.4,22.4c9.8,9.8,22.1,16,35.8,18.1c42.3,6.5,80.7,26,111,56.3c1.7,1.7,3.9,2.5,6,2.5
		c2.2,0,4.4-0.8,6-2.5l24.1-24.1C1989.5,475.3,1989.5,469.9,1986.1,466.6z M1652.2,489.7c-3.9,17.7-14.5,32.8-29.8,42.6
		c-15.3,9.7-33.5,12.9-51.2,9c-17.7-3.9-32.8-14.5-42.6-29.8c-9.7-15.3-12.9-33.5-9-51.2c7-31.6,35.2-53.2,66.3-53.2
		c4.9,0,9.8,0.5,14.7,1.6c17.7,3.9,32.8,14.5,42.6,29.8C1653,453.8,1656.2,472,1652.2,489.7z M1663.1,517.2
		c3.9-7.2,6.9-14.9,8.7-23.1c5.1-22.9,1-46.5-11.7-66.3c-3.8-6-8.3-11.5-13.4-16.3c39.6,1.4,68.8-5.9,89.2-10l24.5-5
		C1747.9,426.7,1705,491.2,1663.1,517.2z M1955.8,484.8c-31.9-29.5-71.2-48.5-114.3-55.1c-10-1.5-19.1-6.2-26.3-13.3l-46.3-46.3
		c-3.3-3.3-8.7-3.3-12.1,0c-0.5,0.5-0.9,1.1-1.3,1.6c-13.1,2.7-53.7,19-73.9,19.8c5-4.1,9.6-8.8,13.6-14.1
		c9.1-11.9,14.8-25.7,16.8-40.1l8.6,8.6c3.3,3.3,8.7,3.3,12.1,0c3.3-3.3,3.3-8.7,0-12.1l-10.8-10.8c-19.1-19.1-34.4-41.2-45.4-65.7
		l11.3-11.3c11.7,24.1,27.2,45.9,46.2,65l93.3,93.3c9.8,9.8,22.1,16,35.8,18.1l17.8,2.7c7.6,1.2,15.4-1.4,20.8-6.8
		c5.4-5.4,8-13.2,6.8-20.8l-2.7-17.8c-2.1-13.6-8.4-26-18.1-35.8l-93.3-93.3c-19-19-40.8-34.5-65-46.2l11.3-11.3
		c24.5,11.1,46.6,26.3,65.7,45.4l93.3,93.3c7.2,7.2,11.8,16.3,13.3,26.3c6.6,43.1,25.6,82.5,55.1,114.3L1955.8,484.8z"/>
	<path class="st0" d="M1752.6,354.7c-0.2-0.5-0.5-1-0.8-1.5c-0.3-0.5-0.7-0.9-1.1-1.3c-0.4-0.4-0.8-0.8-1.3-1.1
		c-0.5-0.3-1-0.6-1.5-0.8c-0.5-0.2-1-0.4-1.6-0.5c-1.1-0.2-2.2-0.2-3.3,0c-0.5,0.1-1.1,0.3-1.6,0.5s-1,0.5-1.5,0.8
		c-0.5,0.3-0.9,0.7-1.3,1.1c-0.4,0.4-0.8,0.8-1.1,1.3c-0.3,0.5-0.6,1-0.8,1.5c-0.2,0.5-0.4,1-0.5,1.6c-0.1,0.5-0.2,1.1-0.2,1.7
		s0.1,1.1,0.2,1.7c0.1,0.5,0.3,1.1,0.5,1.6c0.2,0.5,0.5,1,0.8,1.5c0.3,0.5,0.7,0.9,1.1,1.3c0.4,0.4,0.8,0.8,1.3,1.1
		c0.5,0.3,1,0.6,1.5,0.8c0.5,0.2,1,0.4,1.6,0.5c0.5,0.1,1.1,0.2,1.7,0.2c0.6,0,1.1-0.1,1.7-0.2c0.5-0.1,1.1-0.3,1.6-0.5
		c0.5-0.2,1-0.5,1.5-0.8c0.5-0.3,0.9-0.7,1.3-1.1c0.4-0.4,0.8-0.8,1.1-1.3c0.3-0.5,0.6-1,0.8-1.5c0.2-0.5,0.4-1.1,0.5-1.6
		c0.1-0.6,0.2-1.1,0.2-1.7c0-0.6-0.1-1.1-0.2-1.7C1753,355.8,1752.9,355.2,1752.6,354.7z"/>
</g>
</svg>
