<?xml version="1.0" encoding="utf-8"?>
<!-- Generator: Adobe Illustrator 22.0.1, SVG Export Plug-In . SVG Version: 6.00 Build 0)  -->
<svg version="1.1" id="Capa_1" xmlns="http://www.w3.org/2000/svg" xmlns:xlink="http://www.w3.org/1999/xlink" x="0px" y="0px"
	 viewBox="2629.7 147.9 512 555.8" style="enable-background:new 2629.7 147.9 512 555.8;" xml:space="preserve">
<style type="text/css">
	.st0{fill:#E2A66F;}
</style>
<g>
	<path class="st0" d="M3139.9,324l-80.3-117.9c-16.8-24.7-41.7-43.2-70.2-52.1c-28.5-8.9-59.5-8-87.4,2.7l-244.8,93.6
		c-21.9,8.4-33,32.3-25.2,54.4c6.9,19.5,28.4,30,48,23.3l227-77.4c5.2-1.8,8-7.5,6.2-12.7c-1.8-5.2-7.5-8-12.7-6.2l-227,77.4
		c-9.3,3.2-19.5-1.8-22.7-11c-4.2-11.8,1.8-24.6,13.5-29.1l244.8-93.6c10.5-4,21.3-6.4,32.1-7.2c-5.6,3.9-10.3,8.9-13.8,15
		c-6.4,10.9-8.2,23.7-5,35.9l11.4,43.7l-5.7,1.7c-8.8,2.6-16.1,8.6-20.4,16.7c-4.4,8.1-5.3,17.5-2.7,26.3c0.4,1.2,0.8,2.3,1.3,3.5
		c-3.5,1.9-5.7,5.9-5.2,10.1c2.3,17.2-2.3,34.2-12.8,47.9c-7.7,10.1-18.1,17.5-29.8,21.6c5.3-5.4,9.9-11.4,13.7-18.2
		c11.1-19.8,13.8-42.7,7.6-64.5c-1.5-5.3-7-8.4-12.3-6.9c-5.3,1.5-8.4,7-6.9,12.3c4.7,16.7,2.6,34.2-5.8,49.3
		c-8.4,14.9-22,25.7-38.4,30.5c-40.1,2.9-77.5,21.1-109.7,53.5c-2.8,2.8-5.4,5.6-7.9,8.4c2.1-4.5,4.4-9.1,7-13.7
		c27-48.4,66.7-72.9,118-72.9c0.2,0,0.3,0,0.5,0c5.5,0,10-4.5,10-10c0-5.5-4.4-10-10-10c-0.2,0-0.3,0-0.5,0
		c-58.3,0-105.1,28.8-135.5,83.2c-22.5,40.2-27.9,80-28.1,81.9c-0.6,4.2,1.7,8.5,5.8,10.4c1.3,0.6,2.8,0.9,4.2,0.9
		c3.8,0,7.4-2.2,9.1-5.8c0.1-0.3,14.3-30.7,42.2-58.7c16.2-16.2,33.4-28.3,51.5-36.2c-9.5,10.9-16.2,24.1-19.5,38.6
		c-5.1,22.9-1,46.5,11.6,66.3c5.7,9,12.8,16.6,21,22.9c-16.2-1.2-33.5-3.7-52-7.9c-5.4-1.2-10.7,2.2-11.9,7.6
		c-1.2,5.4,2.2,10.7,7.6,11.9c27.5,6.1,53.5,9.2,77.9,9.2c47.5,0,88.9-11.6,123.8-34.6c25.9-17.1,44.9-38.5,58.8-59.3l7.9,30.2
		c2.6,9.9,11.5,16.5,21.3,16.5c1.8,0,3.7-0.2,5.5-0.7l13.1-3.4l5.2,18.1c1.3,4.4,5.3,7.3,9.6,7.3c0.9,0,1.8-0.1,2.8-0.4
		c5.3-1.5,8.4-7.1,6.9-12.4l-5-17.6l16.7-4.3c5.7-1.5,10.4-5.1,13.4-10.2c3-5.1,3.8-11,2.3-16.7L3042,302.2l6.5-2
		c17.2-5.2,27.4-22.6,23.9-39.9l20,29.4l-4-2.8c-4.5-3.2-10.8-2.1-13.9,2.4c-3.2,4.5-2.1,10.8,2.4,13.9l49,34.5
		c1.7,1.2,3.8,1.8,5.8,1.8c2.6,0,5.1-1,7-2.9C3142.1,333.4,3142.6,328,3139.9,324z M2961.4,180.6c2.3-0.6,4.6-0.9,6.9-0.9
		c12.2,0,23.3,8.2,26.5,20.5l10.7,41L2953,257l-11.2-43C2938,199.4,2946.8,184.4,2961.4,180.6z M2904.1,381.1
		c11.9-15.4,17.9-34.1,17.5-53.3c5,2.7,10.6,4.2,16.4,4.2c2.6,0,5.3-0.3,7.9-0.9c0.4,14.8-4.3,29.1-13.4,41
		c-10.5,13.7-25.8,22.5-43,24.8c-0.6,0.1-1.2,0.2-1.7,0.4C2893.9,392.7,2899.4,387.3,2904.1,381.1z M2948.5,384.2
		c4.9-6.4,8.8-13.3,11.6-20.5l8.3,31.7c-9.7,1.3-20.8,2.4-33.5,2.9C2939.8,394.2,2944.4,389.5,2948.5,384.2z M2905.4,496.5
		c-3.9,17.7-14.5,32.8-29.8,42.6c-15.3,9.7-33.5,12.9-51.2,9c-17.7-3.9-32.8-14.5-42.6-29.8c-9.7-15.3-12.9-33.5-9-51.2
		c7-31.6,35.2-53.2,66.3-53.2c4.9,0,9.8,0.5,14.7,1.6c17.7,3.9,32.8,14.5,42.6,29.8C2906.2,460.6,2909.4,478.8,2905.4,496.5z
		 M2916.3,524c3.9-7.2,6.9-14.9,8.7-23.1c5.1-22.9,1-46.5-11.7-66.3c-3.8-6-8.3-11.5-13.4-16.3c30.2,1.1,54.6-0.7,73.5-3.4l9.6,37
		C2969.3,477,2948.2,504.2,2916.3,524z M3070.1,491.7c-0.2,0.3-0.6,0.8-1.2,0.9l-23.5,6.1l-6.3,1.6c-0.7,0.4-1.3,1-1.8,1.5
		c0.5-0.6,1.1-1.1,1.8-1.5l-19.3,5c-1.1,0.3-2.2-0.4-2.4-1.4l-18.8-72.3c1,0.3,2,0.5,3.1,0.8c3.4,0.7,6.5,1,9.4,1
		c6.4,0,11.4-1.3,14.3-2.1c10.7-2.9,19.4-8.4,26-14.3v0c1.6-1.4,3.1-2.8,4.4-4.2c-1.4,1.4-2.8,2.8-4.4,4.2l19,73.1
		C3070.5,490.8,3070.3,491.4,3070.1,491.7z M3045.3,394.3L3045.3,394.3L3045.3,394.3c-5,6.4-13.4,14.6-25.3,17.7
		c-3.3,0.9-8.2,2.2-14.4,0.9c-6.8-1.4-11.5-5.3-14.2-8.1l-21.1-81l52.5-15.8L3045.3,394.3z M3042.8,281.1l-5.8,1.7l-19.2,5.8
		l-52.5,15.8l-19.2,5.8l-4,1.2c-7.7,2.3-15.8-2.1-18.1-9.7c-1.1-3.7-0.7-7.6,1.1-11c1.8-3.4,4.9-5.9,8.6-7l5-1.5l19.2-5.8l52.5-15.8
		l19.2-5.8l4.8-1.4c1.4-0.4,2.8-0.6,4.1-0.6c2.4,0,4.7,0.6,6.9,1.8c3.4,1.8,5.9,4.9,7,8.6C3054.8,270.7,3050.4,278.8,3042.8,281.1z
		 M3054.9,236.9c-8.1-4.4-17.5-5.3-26.3-2.7l-4.1,1.2l-10.5-40.3c-0.9-3.4-2.1-6.6-3.6-9.6c12.6,8.1,23.8,18.7,32.6,31.7l14.3,21
		C3056.6,237.8,3055.8,237.3,3054.9,236.9z"/>
	<path class="st0" d="M2847.9,442.2c-21.8-4.9-43.5,9-48.4,30.8c-2.4,10.6-0.4,21.4,5.4,30.6c5.8,9.1,14.8,15.5,25.4,17.8
		c3,0.7,5.9,1,8.8,1c18.6,0,35.4-12.9,39.6-31.8c2.4-10.6,0.4-21.4-5.4-30.6C2867.5,450.9,2858.5,444.6,2847.9,442.2z M2859.2,486.3
		c-2.5,11.1-13.5,18.1-24.5,15.6c-5.4-1.2-9.9-4.4-12.9-9c-2.9-4.6-3.9-10.1-2.7-15.5c2.1-9.6,10.6-16.1,20.1-16.1
		c1.5,0,3,0.2,4.5,0.5c5.4,1.2,9.9,4.4,12.9,9C2859.4,475.4,2860.4,480.9,2859.2,486.3z"/>
	<path class="st0" d="M3066.3,580.8c0.7,0,1.1,0.2,1.5,0.7c34.1,43.8,37.2,60.9,37.3,65.1c0.6,20.4-15.6,37.4-36,38
		c-0.3,0-0.7,0-1,0c-9.5,0-18.5-3.6-25.4-10.1c-7.2-6.8-11.3-16-11.5-25.9c-0.1-4.2,2-21.4,33.7-67.1
		C3065.1,581.1,3065.5,580.9,3066.3,580.8L3066.3,580.8 M3066.3,561.8c-0.2,0-0.4,0-0.5,0c-6.7,0.2-12.8,3.5-16.6,9
		c-25,36-37.5,62.4-37,78.4c0.4,15,6.6,28.9,17.5,39.1c10.5,9.9,24.1,15.3,38.5,15.3c0.5,0,1,0,1.6,0c30.9-0.8,55.3-26.6,54.4-57.5
		c-0.4-16-14.3-41.7-41.3-76.3C3078.7,564.7,3072.8,561.8,3066.3,561.8L3066.3,561.8z"/>
	<path class="st0" d="M3041.9,499.1c-1,0.3-2,0.7-2.8,1.3l6.3-1.6C3044.2,498.7,3043.1,498.8,3041.9,499.1z"/>
</g>
</svg>
