<?xml version="1.0" encoding="utf-8"?>
<!-- Generator: Adobe Illustrator 22.0.1, SVG Export Plug-In . SVG Version: 6.00 Build 0)  -->
<svg version="1.1" id="Capa_1" xmlns="http://www.w3.org/2000/svg" xmlns:xlink="http://www.w3.org/1999/xlink" x="0px" y="0px"
	 viewBox="809.8 143.2 512 560.7" style="enable-background:new 809.8 143.2 512 560.7;" xml:space="preserve">
<style type="text/css">
	.st0{fill:#E2A66F;}
</style>
<g>
	<path class="st0" d="M1123.4,216.2c-2.6,0-5.2,1.1-7.1,2.9c-1.9,1.9-2.9,4.4-2.9,7.1c0,2.6,1.1,5.2,2.9,7.1
		c1.9,1.9,4.4,2.9,7.1,2.9c2.6,0,5.2-1.1,7.1-2.9c1.9-1.9,2.9-4.4,2.9-7.1s-1.1-5.2-2.9-7.1C1128.6,217.2,1126,216.2,1123.4,216.2z"
		/>
	<g>
		<path class="st0" d="M860.3,326.4l227-77.4c5.2-1.8,8-7.5,6.2-12.7c-1.8-5.2-7.5-8-12.7-6.2l-227,77.4c-9.3,3.2-19.5-1.8-22.7-11
			c-4.2-11.8,1.8-24.6,13.5-29.1l244.8-93.6c49.2-18.8,104.2-1.6,133.9,42l49.3,72.4l-4-2.8c-4.5-3.2-10.8-2.1-13.9,2.4
			c-3.2,4.5-2.1,10.8,2.4,13.9l49,34.5c1.7,1.2,3.8,1.8,5.8,1.8c2.6,0,5.1-1,7-2.9c3.4-3.4,4-8.8,1.3-12.8l-80.3-117.9
			c-16.8-24.7-41.7-43.2-70.2-52.1c-28.5-8.9-59.5-8-87.4,2.7l-244.8,93.6c-21.9,8.4-33,32.3-25.2,54.4
			C819.1,322.7,840.7,333.1,860.3,326.4z"/>
		<path class="st0" d="M1010.5,519.8c3,0.7,5.9,1,8.8,1c18.6,0,35.4-12.9,39.6-31.8c2.4-10.6,0.4-21.4-5.4-30.6
			c-5.8-9.1-14.8-15.5-25.4-17.8c-21.8-4.9-43.5,9-48.4,30.8c-2.4,10.6-0.4,21.4,5.4,30.6C990.9,511.1,999.9,517.4,1010.5,519.8z
			 M999.2,475.7c2.1-9.6,10.6-16.1,20.1-16.1c1.5,0,3,0.2,4.5,0.5c5.4,1.2,9.9,4.4,12.9,9c2.9,4.6,3.9,10.1,2.7,15.5
			c-2.5,11.1-13.5,18.1-24.5,15.6c-5.4-1.2-9.9-4.4-12.9-9C999,486.6,998,481.1,999.2,475.7z"/>
		<path class="st0" d="M1243.6,637.9c-2.6,0-5.2,1.1-7.1,2.9c-1.9,1.9-2.9,4.4-2.9,7.1c0,2.6,1.1,5.2,2.9,7.1
			c1.9,1.9,4.4,2.9,7.1,2.9s5.2-1.1,7.1-2.9c1.9-1.9,2.9-4.4,2.9-7.1c0-2.6-1.1-5.2-2.9-7.1C1248.8,639,1246.3,637.9,1243.6,637.9z"
			/>
		<path class="st0" d="M1234.6,292c-0.3-1.2-0.8-2.3-1.5-3.2l-60.6-84.3c-2.4-3.4-6.7-4.9-10.7-3.8c-4,1.1-6.9,4.5-7.4,8.7
			l-10.3,103.3c-0.1,1.2,0,2.4,0.3,3.6l0.3,1.2c-1.7-4.1-6-6.7-10.5-6.1c-5.5,0.7-9.3,5.7-8.6,11.2c2.3,17.2-2.3,34.2-12.8,47.9
			c-10.5,13.7-25.8,22.5-43,24.8c-0.6,0.1-1.2,0.2-1.7,0.4c6-4.6,11.5-9.9,16.2-16.1c13.8-18,19.8-40.2,16.8-62.7
			c-0.7-5.5-5.7-9.3-11.2-8.6c-5.5,0.7-9.3,5.7-8.6,11.2c2.3,17.2-2.3,34.2-12.8,47.9c-7.7,10.1-18.1,17.5-29.8,21.6
			c5.3-5.4,9.9-11.4,13.7-18.2c11.1-19.8,13.8-42.7,7.6-64.5c-1.5-5.3-7-8.4-12.3-6.9c-5.3,1.5-8.4,7-6.9,12.3
			c4.7,16.7,2.6,34.2-5.8,49.3c-8.4,14.9-22,25.7-38.4,30.5c-40.1,2.9-77.5,21.1-109.7,53.5c-2.8,2.8-5.4,5.6-7.9,8.4
			c2.1-4.5,4.4-9.1,7-13.7c27-48.4,66.7-72.9,118-72.9c0.2,0,0.3,0,0.5,0c5.5,0,10-4.5,10-10c0-5.5-4.4-10-10-10c-0.2,0-0.3,0-0.5,0
			c-58.3,0-105.1,28.8-135.5,83.2c-22.5,40.2-27.9,80-28.1,81.9c-0.6,4.2,1.7,8.5,5.8,10.4c1.3,0.6,2.8,0.9,4.2,0.9
			c3.8,0,7.4-2.2,9.1-5.8c0.1-0.3,14.3-30.7,42.2-58.7c16.2-16.2,33.4-28.3,51.5-36.2c-9.5,10.9-16.2,24.1-19.5,38.6
			c-5.1,22.9-1,46.5,11.6,66.3c5.7,9,12.8,16.6,21,22.9c-16.2-1.2-33.5-3.7-52-7.9c-5.4-1.2-10.7,2.2-11.9,7.6
			c-1.2,5.4,2.2,10.7,7.6,11.9c27.5,6.1,53.5,9.2,77.9,9.2c47.5,0,88.9-11.6,123.8-34.6c34.3-22.6,56.6-52.8,70.7-79.3l41.1,153.3
			c1.4,5.3,6.9,8.5,12.2,7.1c5.3-1.4,8.5-6.9,7.1-12.2l-74.2-276.8c4,0.8,8,1.2,11.9,1.2c14.5,0,28.7-5.3,39.6-15l82.1,306.6
			c1.2,4.5,5.2,7.4,9.7,7.4c0.9,0,1.7-0.1,2.6-0.3c5.3-1.4,8.5-6.9,7.1-12.2L1234.6,292z M1128.6,382.6
			c13.8-17.9,19.7-40.2,16.8-62.6l19.1,71.2c-12.7,2.5-29.1,4.7-49.5,5.5C1120,392.6,1124.6,387.9,1128.6,382.6z M953,465.5
			c7-31.6,35.2-53.2,66.3-53.2c4.9,0,9.8,0.5,14.7,1.6c17.7,3.9,32.8,14.5,42.6,29.8c9.7,15.3,12.9,33.5,9,51.2
			c-3.9,17.7-14.5,32.8-29.8,42.6c-15.3,9.7-33.5,12.9-51.2,9c-17.7-3.9-32.8-14.5-42.6-29.8C952.2,501.4,949,483.2,953,465.5z
			 M1096.4,522.4c3.9-7.2,6.9-14.9,8.7-23.1c5.1-22.9,1-46.5-11.7-66.3c-3.8-6-8.3-11.5-13.4-16.3c39.6,1.4,69.2-2,89.6-6.1
			l4.5,16.9C1161.7,457.6,1138.4,496.4,1096.4,522.4z M1164.8,306.5l6.9-68.9l40.4,56.2C1201.2,308.5,1181.5,313.7,1164.8,306.5z"/>
	</g>
</g>
</svg>
